<?xml version="1.0" encoding="UTF-8"?>
<svg id="Ebene_1" xmlns="http://www.w3.org/2000/svg" viewBox="0 0 92.4 132.4">
  <defs>
    <style>
      .cls-1 {
        fill: #fff;
      }
    </style>
  </defs>
  <path class="cls-1" d="M87.2,24.9l-13.23,15.7c4.09-4.86,8.67-10.31,13.23-15.7-5.6-10.8-15.3-19-27-22.7h0c-4.4-1.4-9.2-2.2-14.1-2.2-14.1,0-26.8,6.4-35.3,16.5C4.1,24.5,0,34.9,0,46.1c0,8.7,1.7,15.7,4.6,22,4.8,10.6,12.8,19.2,21,29.9l34.1-40.5c-3.3,3.9-8.1,6.3-13.5,6.3-9.8,0-17.7-7.9-17.7-17.7,0-4.3,1.5-8.3,4.1-11.3,3.3-3.8,8.1-6.3,13.6-6.3,9.8,0,17.7,7.9,17.7,17.7,0,3.96-1.37,7.65-3.61,10.63l-34.69,41.17c2.6,3.4,5.3,7.3,7.9,11.3,9.4,14.5,6.8,23.1,12.8,23.1s3.4-8.7,12.8-23.2h0c15.4-24.1,33.3-35,33.3-63,0-7.7-1.9-14.9-5.2-21.3Z"/>
</svg>